<svg xmlns="http://www.w3.org/2000/svg" viewBox="0 0 256 256"><polyline points="224 56 128 144 32 56" fill="none" stroke="#020D41" stroke-width="24" stroke-linecap="round" stroke-linejoin="round"/><defs><clipPath id="tv25envelopa"><polygon points="-100,-100 346.99,-100 -100,346.99" fill="#fff"/></clipPath><clipPath id="tv25envelopb"><polygon points="356,356 -93.01,356 356,-93.01" fill="#fff"/></clipPath></defs><g clip-path="url(#tv25envelopa)"><path d="M32,56H224a0,0,0,0,1,0,0V192a8,8,0,0,1-8,8H40a8,8,0,0,1-8-8V56A0,0,0,0,1,32,56Z" fill="none" stroke="#007DC2" stroke-width="24" stroke-linecap="round" stroke-linejoin="round"/></g><g clip-path="url(#tv25envelopb)"><path d="M32,56H224a0,0,0,0,1,0,0V192a8,8,0,0,1-8,8H40a8,8,0,0,1-8-8V56A0,0,0,0,1,32,56Z" fill="none" stroke="#6DB23F" stroke-width="24" stroke-linecap="round" stroke-linejoin="round"/></g></svg>
