<svg xmlns="http://www.w3.org/2000/svg" viewBox="0 0 256 256"><defs><clipPath id="thuisa"><polygon points="-100,-100 366.48,-100 -100,366.48" fill="#fff"/></clipPath><clipPath id="thuisb"><polygon points="356,356 -73.52,356 356,-73.52" fill="#fff"/></clipPath></defs><g clip-path="url(#thuisa)"><path d="M104,216V152h48v64h64V120a8,8,0,0,0-2.34-5.66l-80-80a8,8,0,0,0-11.32,0l-80,80A8,8,0,0,0,40,120v96Z" fill="none" stroke="#007DC2" stroke-width="24" stroke-linecap="round" stroke-linejoin="round"/></g><g clip-path="url(#thuisb)"><path d="M104,216V152h48v64h64V120a8,8,0,0,0-2.34-5.66l-80-80a8,8,0,0,0-11.32,0l-80,80A8,8,0,0,0,40,120v96Z" fill="none" stroke="#6DB23F" stroke-width="24" stroke-linecap="round" stroke-linejoin="round"/></g></svg>
