<svg xmlns="http://www.w3.org/2000/svg" xmlns:xlink="http://www.w3.org/1999/xlink" id="Laag_1" x="0px" y="0px" width="70.4px" height="66.5px" viewBox="0 0 70.4 66.5" style="enable-background:new 0 0 70.4 66.5;" xml:space="preserve">
<style type="text/css">
	.st0{fill:#00A19B;}
</style>
<path class="st0" d="M56.4,51.4c2.8-4,4.4-8.6,4.6-13.5c0.3-7.7-2.9-15-8.7-20.1l-0.1,0.1c4.3,4.5,6.5,10.4,6.2,16.6  c-0.2,4.9-1.9,9.5-4.9,13.3l-0.8,1l-2.8-3L48,55.4l9.7-1.4L56,52.2L56.4,51.4z"></path>
<path class="st0" d="M28,34.6h16.5v-3.2c0,0,0.1-3.3,3.3-3.3h1.6c0,0-0.5-5-4.8-5H27.9c0,0-4.9,0.4-4.9,5c0,0,1.3-0.4,2.7,0  C27.8,28.7,28,30.2,28,34.6"></path>
<path class="st0" d="M21.3,35.8v6.3c0,0,0.2,0.8,0.9,0.8h3.2c0,0,0.9-0.3,0.9-0.8v-1h19.9v0.8c0,0-0.1,0.8,0.9,0.8h3.2  c0,0,0.8-0.1,0.8-0.9v-6.3c0,0,1.7-1,1.7-2.7c0-1.8-1.8-3.3-3.3-3.3h-1.9c0,0-1.4,0.1-1.4,1.7v4.9h-20V31c0,0-0.4-1.6-1.5-1.6H23  c0,0-3.3,0.4-3.3,3.4C19.6,34.8,21.3,35.8,21.3,35.8"></path>
<path class="st0" d="M12.1,44.5c2.3,4.3,5.6,7.9,9.9,10.3c6.7,3.8,14.7,4.3,21.8,1.5l0-0.1c-6,1.7-12.2,1-17.6-2.1  c-4.3-2.4-7.6-6.1-9.5-10.5l-0.5-1.2l4-1.1l-7.6-6.1l-3.2,9.3l2.4-0.7L12.1,44.5z"></path>
<path class="st0" d="M40.5,9.4c-4.8-0.9-9.6-0.5-14.2,1.3c-7.1,2.9-12.5,8.8-14.8,16.2l0.1,0.1c2.3-5.8,6.8-10.2,12.6-12.5  c4.6-1.8,9.4-2.2,14.1-1l1.2,0.3l-1.6,3.8l9.5-2.2l-5.3-8.3l-0.9,2.3L40.5,9.4z"></path>
</svg>