<svg xmlns="http://www.w3.org/2000/svg" viewBox="2.3 2.3 43.4 43.4"><defs><path id="kib-as-zorgg" d="M229.1,142.7a22.4,22.4,0,0,0-19.6-3.9l-4.3,1C227,119.5,238,99.5,238,80c0-25.4-20.4-46-45.5-46A45.5,45.5,0,0,0,156,52a45.5,45.5,0,0,0-36.5-18C94.4,34,74,54.6,74,80c0,11.4,3.6,22.5,11.3,34.4a29.7,29.7,0,0,0-16.6,8.4L45.5,146H16A14,14,0,0,0,2,160v40a14,14,0,0,0,14,14H120a6,6,0,0,0,1.5-.18l64-16a7.2,7.2,0,0,0,.89-.3L225.2,181l.33-.15a22.6,22.6,0,0,0,3.6-38.2ZM119.5,46a33.2,33.2,0,0,1,31,20.3,6,6,0,0,0,11.1,0,33.2,33.2,0,0,1,31-20.3C210.7,46,226,61.6,226,80c0,20.2-16.2,43-46.8,65.8l-14.9,3.4A26,26,0,0,0,140,114H99.7C90.4,101.7,86,90.8,86,80,86,61.6,101.3,46,119.5,46ZM14,200V160a2,2,0,0,1,2-2H42v44H16A2,2,0,0,1,14,200Zm206.3-30-38.2,16.3L119.3,202H54V154.5l23.2-23.2A17.9,17.9,0,0,1,89.9,126H140a14,14,0,0,1,0,28H112a6,6,0,0,0,0,12h32a6,6,0,0,0,1.3-.15l67-15.4.24-.06A10.6,10.6,0,0,1,220.3,170Z"/><clipPath id="kib-as-zorga"><rect x="66" y="20" width="160" height="86"/></clipPath></defs><g transform="translate(2.667 2.667) scale(0.16667)"><use href="#kib-as-zorgg" fill="#020D41"/><use href="#kib-as-zorgg" fill="#007AC0" clip-path="url(#kib-as-zorga)"/></g></svg>
