<svg xmlns="http://www.w3.org/2000/svg" viewBox="1555.11 88.30 308.88 286.56" width="309" height="287">
<path fill="#22314E" d="M 1613.410156 230.195312 C 1612.160156 230.761719 1611.199219 231.828125 1610.769531 233.132812 L 1572.910156 348.019531 C 1571.660156 351.8125 1575.21875 355.429688 1579.03125 354.242188 L 1627.699219 339.09375 L 1648.25 214.480469 L 1613.410156 230.195312 "/>
<path fill="#22314E" d="M 1642.25 339.640625 L 1702.328125 358.320312 L 1702.328125 230.445312 L 1663.148438 212.777344 L 1642.25 339.640625 "/>
<path fill="#22314E" d="M 1754.589844 254.84375 L 1733.890625 222.738281 L 1716.769531 230.445312 L 1716.769531 358.320312 L 1776.820312 339.640625 L 1764.089844 262.4375 C 1760.25 261.050781 1756.898438 258.394531 1754.589844 254.84375 "/>
<path fill="#00A19B" d="M 1770.628906 186.015625 C 1756.191406 186.015625 1744.488281 174.300781 1744.488281 159.871094 C 1744.488281 145.425781 1756.191406 133.691406 1770.628906 133.691406 C 1785.089844 133.691406 1796.800781 145.425781 1796.800781 159.871094 C 1796.800781 174.300781 1785.089844 186.015625 1770.628906 186.015625 Z M 1824.101562 158.527344 C 1823.390625 130.996094 1801.191406 108.082031 1773.691406 106.5625 C 1742.769531 104.851562 1717.171875 129.414062 1717.171875 159.941406 C 1717.171875 169.652344 1719.761719 178.757812 1724.289062 186.578125 L 1764.300781 248.59375 C 1767.28125 253.214844 1774.03125 253.214844 1777.011719 248.59375 L 1816.988281 186.578125 C 1821.75 178.378906 1824.359375 168.773438 1824.101562 158.527344 "/>
<path fill="#22314E" d="M 1846.191406 348.019531 L 1808.328125 233.136719 C 1807.898438 231.828125 1806.941406 230.761719 1805.679688 230.195312 L 1803.300781 229.117188 L 1786.71875 254.84375 C 1784.699219 257.960938 1781.871094 260.386719 1778.640625 261.859375 L 1791.371094 339.09375 L 1840.058594 354.246094 C 1843.878906 355.433594 1847.441406 351.8125 1846.191406 348.019531 "/>
</svg>
