<?xml version="1.0" standalone="no"?>
<!DOCTYPE svg PUBLIC "-//W3C//DTD SVG 20010904//EN"
 "http://www.w3.org/TR/2001/REC-SVG-20010904/DTD/svg10.dtd">
<svg version="1.0" xmlns="http://www.w3.org/2000/svg"
 width="813.000000pt" height="387.000000pt" viewBox="0 0 813.000000 387.000000"
 preserveAspectRatio="xMidYMid meet">
<metadata>
Created by potrace 1.16, written by Peter Selinger 2001-2019
</metadata>
<g transform="translate(0.000000,387.000000) scale(0.100000,-0.100000)"
fill="#000000" stroke="none">
<path d="M3962 3860 c-485 -69 -751 -464 -719 -1070 34 -626 320 -926 882
-924 588 1 861 320 860 1004 -2 716 -379 1081 -1023 990z m296 -410 c297 -129
303 -1014 8 -1168 -283 -148 -492 77 -503 543 -12 515 182 761 495 625z"/>
<path d="M1740 3645 l0 -195 220 0 220 0 0 -785 0 -785 265 0 265 0 0 785 0
785 195 0 195 0 0 195 0 195 -680 0 -680 0 0 -195z"/>
<path d="M5315 3828 c-3 -7 -4 -447 -3 -978 l3 -965 243 -3 242 -2 0 335 0
335 58 0 c501 1 743 203 759 635 13 342 -125 542 -432 627 -100 27 -860 42
-870 16z m708 -392 c224 -93 118 -482 -134 -494 l-89 -4 0 256 0 256 95 0 c58
0 108 -5 128 -14z"/>
<path d="M3120 1647 c-362 -83 -505 -673 -195 -803 251 -104 529 73 590 375
62 304 -112 493 -395 428z m152 -186 c38 -34 51 -138 28 -240 -67 -308 -374
-323 -321 -16 40 226 185 353 293 256z"/>
<path d="M6030 1650 c-284 -48 -318 -302 -68 -503 169 -135 0 -213 -245 -112
-16 7 -18 1 -15 -81 l3 -88 50 -20 c348 -137 651 212 375 432 -106 84 -120
100 -120 137 0 74 81 97 200 55 30 -10 55 -18 56 -17 1 1 18 34 37 73 l36 72
-49 21 c-26 11 -79 25 -117 31 -76 11 -80 11 -143 0z"/>
<path d="M1747 1258 c-49 -211 -91 -393 -94 -405 -5 -23 -4 -23 90 -23 l95 0
16 68 c8 37 31 141 50 232 71 333 64 333 65 -2 l1 -298 100 0 100 0 150 298
c83 163 148 288 145 277 -30 -94 -135 -532 -135 -560 0 -12 18 -15 93 -15 l93
0 59 248 c32 136 75 318 95 405 l37 157 -146 0 -146 0 -147 -292 -147 -293 0
293 -1 292 -143 0 -142 0 -88 -382z"/>
<path d="M3650 1613 c0 -16 11 -192 25 -393 14 -201 25 -371 25 -377 0 -10 30
-13 119 -13 l119 0 192 363 c106 199 204 381 217 405 l25 42 -114 0 -114 0
-122 -257 c-67 -142 -128 -276 -135 -298 -14 -40 -27 180 -27 463 l0 92 -105
0 -105 0 0 -27z"/>
<path d="M4470 1635 c0 -3 -40 -179 -90 -392 -49 -213 -90 -393 -90 -400 0
-10 53 -13 245 -13 l244 0 10 38 c5 20 13 56 19 80 l10 42 -139 0 c-76 0 -139
3 -139 8 0 4 8 44 17 90 l17 82 133 0 133 0 6 28 c3 15 12 51 19 80 l13 52
-130 0 -130 0 6 38 c4 20 12 54 17 75 l10 37 139 0 c123 0 139 2 144 18 3 9
10 37 16 62 6 25 13 53 16 63 5 16 -11 17 -245 17 -138 0 -251 -2 -251 -5z"/>
<path d="M5126 1623 c-3 -10 -44 -184 -91 -388 -47 -203 -88 -378 -91 -388 -5
-16 3 -17 103 -15 l108 3 17 70 c9 39 24 105 33 148 29 134 56 118 125 -73
l54 -150 113 0 c62 0 113 4 113 9 0 5 -31 82 -70 170 -82 189 -77 166 -42 180
193 80 187 377 -9 435 -81 24 -356 23 -363 -1z m279 -153 c68 -57 -6 -180
-108 -180 l-35 0 19 88 c27 122 23 115 70 109 22 -3 46 -11 54 -17z"/>
</g>
</svg>
